<svg width="789" height="157" viewBox="0 0 789 157" fill="none" xmlns="http://www.w3.org/2000/svg">
<path d="M31.9303 39.5918C31.3037 48.4408 35.7946 55.3054 45.4031 60.1856C45.4221 60.2046 56.1605 64.5436 77.6183 73.2027C99.057 81.8617 107.745 97.9646 103.681 121.511C101.117 136.408 86.7616 146.178 71.5797 149.311C48.8497 154.021 26.7083 152.321 5.15561 144.213C4.94719 144.13 4.77361 143.979 4.66451 143.787C4.55541 143.595 4.51757 143.373 4.55745 143.159L8.60214 123.22C8.71608 122.65 9.05788 122.461 9.62756 122.65C32.6424 131.006 51.6981 132.772 66.7944 127.948C80.2388 123.647 83.2581 110.744 74.3711 100.063C72.6431 97.993 68.1047 95.2301 60.7559 91.7741C58.3633 90.6537 51.2233 87.4825 39.3361 82.2605C29.2719 77.836 22.4452 74.0762 18.8563 70.9809C-4.67129 50.729 6.80766 12.8171 36.2599 5.38285C55.0022 0.635559 75.0263 1.66097 96.3321 8.4591C96.7309 8.59202 96.8923 8.86736 96.8163 9.28513L92.7716 29.2522C92.6387 29.8789 92.2874 30.0688 91.7177 29.8219C77.5613 23.8973 51.6981 19.4253 37.9689 29.1098C34.266 31.7113 32.2532 35.2053 31.9303 39.5918Z" fill="#FF6300"/>
<path d="M180.758 2.47867C223.74 2.39322 247.667 36.8301 247.752 77.0776C247.809 117.325 224.054 151.876 181.043 151.961C138.061 152.047 114.135 117.61 114.05 77.3625C113.964 37.1149 137.748 2.56413 180.758 2.47867ZM140.539 77.1916C140.539 102.4 151.05 129.545 180.872 129.545C210.723 129.516 221.205 102.371 221.205 77.1631C221.205 51.955 210.695 24.8099 180.844 24.8099C151.021 24.8384 140.539 51.9834 140.539 77.1916Z" fill="#FF6300"/>
<path d="M545.834 93.4547C553.781 127.236 599.013 121.597 623.937 112.881C624.981 112.501 625.598 112.862 625.788 113.963L630.659 144.412C630.792 145.305 630.441 145.893 629.605 146.178C584.287 161.303 525.098 160.05 507.638 106.443C500.83 85.5077 503.052 56.8245 514.274 37.0283C526.351 15.6845 544.59 4.30049 568.992 2.87631C624.279 -0.342359 643.22 42.2978 638.577 90.179C638.528 90.6413 638.315 91.069 637.978 91.3793C637.641 91.6897 637.205 91.8608 636.754 91.8596H547.088C546.005 91.8596 545.587 92.3913 545.834 93.4547ZM547.258 64.1449L599.27 64.0309C599.466 64.0309 599.655 63.9529 599.793 63.814C599.932 63.6751 600.01 63.4868 600.01 63.2903V62.3789C600.003 58.8777 599.304 55.4123 597.953 52.1805C596.602 48.9487 594.625 46.0139 592.136 43.5435C589.647 41.0731 586.695 39.1155 583.447 37.7826C580.199 36.4497 576.72 35.7675 573.207 35.775C569.695 35.7825 566.218 36.4795 562.976 37.8263C559.734 39.173 556.79 41.1431 554.311 43.6241C551.833 46.1051 549.869 49.0483 548.532 52.2858C547.195 55.5233 546.51 58.9917 546.518 62.4928V63.4043C546.518 63.6007 546.596 63.7891 546.735 63.928C546.874 64.0668 547.062 64.1449 547.258 64.1449Z" fill="#6806B1"/>
<path d="M451.468 41.3304V149.683C451.468 149.784 451.447 149.884 451.407 149.977C451.367 150.07 451.308 150.155 451.234 150.226C451.16 150.298 451.072 150.354 450.975 150.393C450.879 150.432 450.775 150.452 450.67 150.452H411.591C411.002 150.452 410.708 150.157 410.708 149.569V15.1253C410.708 14.4417 411.021 13.9955 411.647 13.7866C441.612 3.44697 472.204 -0.255913 502.909 8.3177C503.802 8.56456 504.163 9.14373 503.992 10.0552L497.811 40.5613C497.621 41.4728 497.07 41.8431 496.159 41.6722C477.018 37.9978 467.789 36.5736 452.721 39.7922C452.367 39.8646 452.048 40.0573 451.82 40.3376C451.591 40.618 451.467 40.9687 451.468 41.3304Z" fill="#6806B1"/>
<path d="M354.936 126.782C355.676 126.649 356.046 126.203 356.046 125.443V6.92206C356.046 6.3334 356.341 6.03906 356.929 6.03906H380.656C381.34 6.03906 381.682 6.38087 381.682 7.06448V143.046C381.682 143.957 381.236 144.518 380.343 144.726C354.138 150.708 332.082 152.74 314.175 150.822C277.716 146.92 266.209 118.037 266.636 85.4518C266.693 80.8374 266.702 54.7653 266.664 7.23538C266.664 6.45682 267.054 6.06755 267.832 6.06755H290.619C291.531 6.06755 291.986 6.52329 291.986 7.43477C291.892 33.4879 291.92 59.9588 292.072 86.8475C292.357 130.997 320.385 132.934 354.936 126.782Z" fill="#FF6300"/>
<path d="M711.724 100.775C712.218 100.775 712.655 100.225 713.034 99.1232C722.434 72.4055 731.976 41.9753 741.661 7.8328C741.907 6.92132 742.496 6.46558 743.427 6.46558H782.506C783.665 6.46558 784.082 7.02576 783.76 8.14612C769.442 57.423 751.25 104.535 729.185 149.482C729.039 149.771 728.819 150.013 728.548 150.184C728.276 150.355 727.965 150.447 727.647 150.451C722.538 150.527 717.212 150.565 711.667 150.565C706.141 150.546 700.824 150.498 695.716 150.422C695.393 150.424 695.076 150.334 694.799 150.163C694.522 149.992 694.297 149.746 694.15 149.454C672.198 104.45 654.12 57.2901 639.917 7.97522C639.594 6.85486 640.012 6.29468 641.17 6.29468L680.25 6.38013C681.18 6.39912 681.769 6.86435 682.016 7.77583C691.624 41.9373 701.09 72.3865 710.414 99.1232C710.813 100.225 711.249 100.775 711.724 100.775Z" fill="#6806B1"/>
</svg>
